# xmcd
#
# Track frame offsets: 
#        150
#        18993
#        47601
#        65022
#        86425
#        102671
#        114956
#        135094
#        155092
#        172788
#        211820
#
# Disc length: 3056 seconds
#
# Revision: 2
# Processed by: cddbd v1.5.2PL0 Copyright (c) Steve Scherf et al.
# Submitted via: ExactAudioCopyFreeDBPlugin 1.0
#
DISCID=840bee0b
DTITLE=Bill Lyerly Band - Railroad Station Blues
DYEAR=1998
DGENRE=Blues
TTITLE0=You Never Know
TTITLE1=An Eye For An Eye - Too Hurt To Cry
TTITLE2=Case of Jones
TTITLE3=Something's Eatin' Me
TTITLE4=See Past Your Eyes
TTITLE5=Hangmen
TTITLE6=Nothin' To Show
TTITLE7=There Must Be An Angel
TTITLE8=Virtual Reality Time
TTITLE9=I Can't Understand - Railroad Station Blues
TTITLE10=Down Along The Cove
EXTD=
EXTT0=
EXTT1=
EXTT2=
EXTT3=
EXTT4=
EXTT5=
EXTT6=
EXTT7=
EXTT8=
EXTT9=
EXTT10=
PLAYORDER=
